#!OML:ASF H:\Dans Jumps\Project 1\Capture day 1\Session 1\subject.ASF
:FULLY-SPECIFIED
:DEGREES
546
root 0.392117 17.7429 4.04504 8.65075 -0.998357 -1.95239
lowerback -4.82965 0.0113228 0.382147
upperback 1.19166 -0.0623752 1.39428
thorax 3.93994 -0.0391018 1.2192
lowerneck -13.3677 -0.478144 -2.39485
upperneck 27.3758 -0.600849 1.83101
head 11.0621 -0.298766 0.995655
rclavicle 4.37326e-015 -7.7526e-015
rhumerus -28.4182 -20.908 -77.3212
rradius 22.5857
rwrist 36.4932
rhand -21.43 -27.9397
rfingers 7.12502
rthumb 4.95916 -57.8616
lclavicle 4.37326e-015 -7.7526e-015
lhumerus -26.6316 2.38997 86.745
lradius 19.5868
lwrist 2.94724
lhand -25.2784 -4.6526
lfingers 7.12502
lthumb 1.24267 25.3235
rfemur -12.5211 -2.47333 20.1043
rtibia 19.1461
rfoot -13.2758 1.48347
rtoes 20.279
lfemur -10.8005 6.55594 -17.2583
ltibia 16.6457
lfoot -9.70223 8.84415
ltoes 1.17784
547
root 0.394221 17.7431 4.04269 8.63358 -1.01064 -1.95758
lowerback -4.83108 0.014534 0.38401
upperback 1.19428 -0.0581369 1.39097
thorax 3.94337 -0.036921 1.21509
lowerneck -13.3808 -0.48428 -2.392
upperneck 27.2863 -0.610042 1.83425
head 11.0311 -0.301912 0.994405
rclavicle -7.45443e-017 -5.1684e-015
rhumerus -28.4312 -21.0201 -77.2682
rradius 22.5372
rwrist 36.5831
rhand -21.4381 -27.9516
rfingers 7.12502
rthumb 4.95131 -57.8738
lclavicle -7.45443e-017 -5.1684e-015
lhumerus -26.653 2.4361 86.7449
lradius 19.5451
lwrist 2.89846
lhand -25.2409 -4.58184
lfingers 7.12502
lthumb 1.27892 25.3941
rfemur -12.5088 -2.46163 20.1015
rtibia 19.1405
rfoot -13.2628 1.47962
rtoes 20.258
lfemur -10.7878 6.56093 -17.2596
ltibia 16.645
lfoot -9.69668 8.84887
ltoes 1.1776
548
root 0.396389 17.7432 4.04051 8.61774 -1.02136 -1.95947
lowerback -4.83534 0.0169416 0.384419
upperback 1.19589 -0.054867 1.38681
thorax 3.94738 -0.0352442 1.21084
lowerneck -13.3881 -0.490567 -2.39099
upperneck 27.1962 -0.619057 1.83734
head 10.9988 -0.305214 0.993435
rclavicle 1.68967e-015 -3.77691e-015
rhumerus -28.4387 -21.1168 -77.2237
rradius 22.4928
rwrist 36.6657
rhand -21.4514 -27.9572
rfingers 7.12502
rthumb 4.93847 -57.8797
lclavicle 1.68967e-015 -3.77691e-015
lhumerus -26.6707 2.47312 86.7491
lradius 19.5088
lwrist 2.85747
lhand -25.2105 -4.54861
lfingers 7.12502
lthumb 1.30823 25.4271
rfemur -12.4985 -2.45798 20.0948
rtibia 19.1389
rfoot -13.2537 1.48318
rtoes 20.2501
lfemur -10.7733 6.5678 -17.2654
ltibia 16.6383
lfoot -9.68801 8.84988
ltoes 1.1715
549
root 0.398547 17.7434 4.03836 8.60353 -1.03304 -1.95753
lowerback -4.84107 0.0198158 0.381805
upperback 1.19625 -0.0507322 1.38132
thorax 3.9509 -0.03319 1.207
lowerneck -13.3894 -0.498408 -2.39335
upperneck 27.1036 -0.630322 1.84323
head 10.9645 -0.309567 0.99374
rclavicle -2.55935e-015 -8.74653e-015
rhumerus -28.4444 -21.1991 -77.1869
rradius 22.456
rwrist 36.7401
rhand -21.4669 -27.956
rfingers 7.12502
rthumb 4.92352 -57.8788
lclavicle -2.55935e-015 -8.74653e-015
lhumerus -26.6842 2.49844 86.7576
lradius 19.4794
lwrist 2.82638
lhand -25.1954 -4.5604
lfingers 7.12502
lthumb 1.32282 25.4152
rfemur -12.4937 -2.45999 20.0838
rtibia 19.1444
rfoot -13.248 1.4928
rtoes 20.2439
lfemur -10.7563 6.57577 -17.2759
ltibia 16.6238
lfoot -9.67545 8.84888
ltoes 1.15532
550
root 0.40068 17.7436 4.03632 8.5904 -1.04523 -1.95096
lowerback -4.84964 0.02176 0.373556
upperback 1.19542 -0.0475059 1.37602
thorax 3.95482 -0.0317222 1.20644
lowerneck -13.3821 -0.50579 -2.39754
upperneck 27.0086 -0.640113 1.84727
head 10.9276 -0.313694 0.993863
rclavicle -2.6339e-015 -1.39149e-015
rhumerus -28.4454 -21.2653 -77.1568
rradius 22.424
rwrist 36.8053
rhand -21.4778 -27.9509
rfingers 7.12502
rthumb 4.91297 -57.874
lclavicle -2.6339e-015 -1.39149e-015
lhumerus -26.6953 2.51564 86.7708
lradius 19.4581
lwrist 2.80727
lhand -25.1922 -4.59711
lfingers 7.12502
lthumb 1.32596 25.3785
rfemur -12.4947 -2.46974 20.0682
rtibia 19.1586
rfoot -13.2469 1.50956
rtoes 20.2283
lfemur -10.7359 6.58527 -17.2917
ltibia 16.601
lfoot -9.6619 8.84434
ltoes 1.14967
551
root 0.402776 17.7437 4.03443 8.57969 -1.06038 -1.93157
lowerback -4.86376 0.0226162 0.351265
upperback 1.19502 -0.0448207 1.3684
thorax 3.96234 -0.0308369 1.21134
lowerneck -13.3724 -0.512495 -2.40271
upperneck 26.9101 -0.648418 1.85029
head 10.8889 -0.317378 0.99396
rclavicle -7.33018e-015 1.72943e-014
rhumerus -28.4407 -21.3095 -77.1379
rradius 22.4015
rwrist 36.8519
rhand -21.4851 -27.9406
rfingers 7.12502
rthumb 4.90596 -57.8638
lclavicle -7.33018e-015 1.72943e-014
lhumerus -26.7031 2.52583 86.7878
lradius 19.4485
lwrist 2.79723
lhand -25.193 -4.63809
lfingers 7.12502
lthumb 1.32512 25.3375
rfemur -12.5042 -2.48686 20.0386
rtibia 19.1836
rfoot -13.2514 1.53379
rtoes 20.2094
lfemur -10.7121 6.59435 -17.3222
ltibia 16.5681
lfoot -9.64415 8.83878
ltoes 1.14807
552
root 0.404756 17.7438 4.03255 8.57118 -1.07845 -1.90132
lowerback -4.88021 0.0227352 0.315701
upperback 1.19349 -0.0422185 1.35928
thorax 3.97001 -0.030291 1.22216
lowerneck -13.3668 -0.517374 -2.40462
upperneck 26.8163 -0.653609 1.84872
head 10.8528 -0.31987 0.992292
rclavicle -6.03808e-015 7.15625e-015
rhumerus -28.4321 -21.3337 -77.1283
rradius 22.3873
rwrist 36.8824
rhand -21.4869 -27.9269
rfingers 7.12502
rthumb 4.90423 -57.8501
lclavicle -6.03808e-015 7.15625e-015
lhumerus -26.708 2.52906 86.809
lradius 19.45
lwrist 2.79811
lhand -25.1853 -4.66195
lfingers 7.12502
lthumb 1.33259 25.3136
rfemur -12.5211 -2.50491 19.9974
rtibia 19.217
rfoot -13.26 1.56073
rtoes 20.1897
lfemur -10.6866 6.60354 -17.3649
ltibia 16.5278
lfoot -9.62582 8.83314
ltoes 1.16933
553
root 0.40676 17.744 4.03082 8.56335 -1.09895 -1.85944
lowerback -4.8996 0.0228208 0.269281
upperback 1.19227 -0.0388742 1.34721
thorax 3.97966 -0.0296063 1.23609
lowerneck -13.3722 -0.520515 -2.40227
upperneck 26.7316 -0.656068 1.84301
head 10.8223 -0.321169 0.988848
rclavicle 8.44835e-016 -6.55989e-015
rhumerus -28.4192 -21.342 -77.1281
rradius 22.3814
rwrist 36.8963
rhand -21.4852 -27.9099
rfingers 7.12502
rthumb 4.90583 -57.8331
lclavicle 8.44835e-016 -6.55989e-015
lhumerus -26.7056 2.52924 86.8318
lradius 19.4578
lwrist 2.80128
lhand -25.1741 -4.68501
lfingers 7.12502
lthumb 1.34342 25.2905
rfemur -12.541 -2.53206 19.943
rtibia 19.2545
rfoot -13.271 1.59819
rtoes 20.1787
lfemur -10.6591 6.61354 -17.4213
ltibia 16.4845
lfoot -9.60901 8.82701
ltoes 1.20857
554
root 0.408675 17.744 4.02911 8.5526 -1.11939 -1.82368
lowerback -4.914 0.0231259 0.228766
upperback 1.19022 -0.0356031 1.33702
thorax 3.9856 -0.028833 1.24862
lowerneck -13.3833 -0.521535 -2.39752
upperneck 26.6547 -0.655682 1.83593
head 10.7957 -0.321095 0.984944
rclavicle 3.47873e-015 -7.55382e-015
rhumerus -28.4058 -21.3312 -77.1375
rradius 22.3852
rwrist 36.8897
rhand -21.482 -27.9002
rfingers 7.12502
rthumb 4.90895 -57.8233
lclavicle 3.47873e-015 -7.55382e-015
lhumerus -26.6986 2.52239 86.8564
lradius 19.4715
lwrist 2.81476
lhand -25.1591 -4.70279
lfingers 7.12502
lthumb 1.3579 25.2726
rfemur -12.5555 -2.55843 19.8954
rtibia 19.2881
rfoot -13.2814 1.63713
rtoes 20.1836
lfemur -10.6313 6.62422 -17.4702
ltibia 16.447
lfoot -9.59444 8.82239
ltoes 1.2482
555
root 0.41048 17.744 4.02733 8.53788 -1.13755 -1.80017
lowerback -4.92232 0.0251713 0.201498
upperback 1.18824 -0.0308902 1.32946
thorax 3.98817 -0.027052 1.25654
lowerneck -13.3953 -0.524024 -2.39764
upperneck 26.583 -0.657836 1.8348
head 10.7714 -0.321961 0.983731
rclavicle 2.03754e-015 1.05356e-014
rhumerus -28.3919 -21.3107 -77.1542
rradius 22.3987
rwrist 36.8691
rhand -21.4731 -27.8941
rfingers 7.12502
rthumb 4.91752 -57.8171
lclavicle 2.03754e-015 1.05356e-014
lhumerus -26.6881 2.50282 86.8838
lradius 19.4957
lwrist 2.84122
lhand -25.1559 -4.73812
lfingers 7.12502
lthumb 1.36098 25.2373
rfemur -12.5606 -2.57791 19.8613
rtibia 19.3126
rfoot -13.2878 1.67109
rtoes 20.2022
lfemur -10.6051 6.63399 -17.5042
ltibia 16.4208
lfoot -9.58575 8.82013
ltoes 1.29434
556
root 0.412155 17.744 4.02532 8.52026 -1.15253 -1.79575
lowerback -4.92475 0.0281394 0.193339
upperback 1.18592 -0.0263192 1.32738
thorax 3.98704 -0.024942 1.25935
lowerneck -13.403 -0.526482 -2.40702
upperneck 26.5136 -0.660378 1.8432
head 10.7472 -0.322807 0.987507
rclavicle -1.09332e-015 -6.16232e-015
rhumerus -28.3757 -21.2758 -77.1783
rradius 22.4192
rwrist 36.8319
rhand -21.4667 -27.8957
rfingers 7.12502
rthumb 4.92375 -57.8185
lclavicle -1.09332e-015 -6.16232e-015
lhumerus -26.6771 2.47074 86.9143
lradius 19.5365
lwrist 2.88859
lhand -25.156 -4.77816
lfingers 7.12502
lthumb 1.36089 25.1972
rfemur -12.556 -2.58808 19.8488
rtibia 19.3239
rfoot -13.2867 1.69667
rtoes 20.2253
lfemur -10.5852 6.64215 -17.5154
ltibia 16.4108
lfoot -9.58271 8.82106
ltoes 1.33384
557
root 0.413667 17.7439 4.02313 8.50055 -1.16549 -1.80318
lowerback -4.92091 0.0319667 0.196238
upperback 1.18098 -0.0213467 1.32866
thorax 3.97965 -0.0223876 1.25942
lowerneck -13.4029 -0.529687 -2.42644
upperneck 26.4469 -0.664864 1.86318
head 10.7226 -0.324193 0.996918
rclavicle 1.21756e-015 3.97569e-016
rhumerus -28.3631 -21.2316 -77.2068
rradius 22.449
rwrist 36.7827
rhand -21.4558 -27.8962
rfingers 7.12502
rthumb 4.93422 -57.8188
lclavicle 1.21756e-015 3.97569e-016
lhumerus -26.6721 2.41865 86.95
lradius 19.5921
lwrist 2.95309
lhand -25.1595 -4.79854
lfingers 7.12502
lthumb 1.35748 25.1769
rfemur -12.5443 -2.58916 19.8496
rtibia 19.3252
rfoot -13.2787 1.71499
rtoes 20.2548
lfemur -10.5701 6.64689 -17.5119
ltibia 16.4131
lfoot -9.58332 8.82577
ltoes 1.36748
